<svg width="100%" height="100%" viewBox="0 0 16 16" fill="none" xmlns="http://www.w3.org/2000/svg">
  <path
    d="M5.75 11.6895L4.08398 10.0234C3.23017 9.16962 2.75011 8.01117 2.75 6.80371C2.75 4.28899 4.78899 2.25 7.30371 2.25H8.69629C11.211 2.25 13.25 4.28899 13.25 6.80371C13.2499 8.01117 12.7698 9.16962 11.916 10.0234L10.25 11.6895V13C10.25 13.6904 9.69036 14.25 9 14.25H7C6.30964 14.25 5.75 13.6904 5.75 13V11.6895Z"
    stroke="currentColor" stroke-width="1.5" />
  <path d="M8.00003 11L8.00003 8.11111M8.00003 8.11111L5.5 5.61111M8.00003 8.11111L10.5 5.61111"
    stroke="currentColor" stroke-width="1.5" />
  <path d="M5 11H11" stroke="currentColor" stroke-width="1.5" />
</svg>