<svg width="100%" height="100%" viewBox="0 0 16 16" fill="none" xmlns="http://www.w3.org/2000/svg">
<path d="M6 10.5L15 3.80002" stroke="currentColor" stroke-width="1.5"/>
<path d="M4 9.04999C5.24264 9.04999 6.25 10.0573 6.25 11.3C6.25 12.5426 5.24264 13.55 4 13.55C2.75736 13.55 1.75 12.5426 1.75 11.3C1.75 10.0573 2.75736 9.04999 4 9.04999Z" stroke="currentColor" stroke-width="1.5"/>
<path d="M6 5.5L15 12.3" stroke="currentColor" stroke-width="1.5"/>
<path d="M4 7.04999C5.24264 7.04999 6.25 6.04263 6.25 4.79999C6.25 3.55735 5.24264 2.54999 4 2.54999C2.75736 2.54999 1.75 3.55735 1.75 4.79999C1.75 6.04263 2.75736 7.04999 4 7.04999Z" stroke="currentColor" stroke-width="1.5"/>
</svg>
