<svg width="100%" height="100%" viewBox="0 0 16 16" fill="none" xmlns="http://www.w3.org/2000/svg">
<path d="M11.6782 6L6.4109 11.2673L6.4109 14.0891L9.23268 14.0891L14.5 8.82178L11.6782 6Z" stroke="currentColor" stroke-width="1.5"/>
<path d="M14.469 9.16355L12.0226 6.22791L10.5548 7.20646L13.4905 10.1421L14.469 9.16355Z" fill="currentColor"/>
<circle cx="8.5" cy="1.5" r="1.5" fill="currentColor"/>
<path d="M5.6574 6.32264L5.43436 6.43381L5.3225 6.65754L4.49316 8.31137L3.66383 6.65754L3.55197 6.43381L3.32892 6.32264L1.6744 5.49261L3.32892 4.66397L3.55266 4.55211L3.66383 4.32906L4.49316 2.67385L5.3225 4.32906L5.43367 4.55211L5.6574 4.66397L7.31192 5.49261L5.6574 6.32264Z" stroke="currentColor" stroke-width="1.5"/>
</svg>
