<svg xmlns="http://www.w3.org/2000/svg" width="100%" height="100%" fill="none" viewBox="0 0 16 16"><path stroke="currentColor" stroke-width="1.5" d="M3.5 2.75h9A2.25 2.25 0 0 1 14.75 5v6a2.25 2.25 0 0 1-2.25 2.25h-9A2.25 2.25 0 0 1 1.25 11V5A2.25 2.25 0 0 1 3.5 2.75Z" vector-effect="non-scaling-stroke"/><path fill="currentColor" d="M3.5 5h1.286v1.125H3.5zM4.786 7.25h1.286v1.125H4.786zM3.5 9.5h1.286v1.125H3.5zM5.5 9.5h5v1.13h-5zM6.071 5h1.286v1.125H6.071zM7.357 7.25h1.286v1.125H7.357zM8.643 5h1.286v1.125H8.643zM9.929 7.25h1.286v1.125H9.929zM11.214 9.5H12.5v1.125h-1.286zM11.214 5H12.5v1.125h-1.286z"/></svg>