<svg width="100%" height="100%" viewBox="0 0 16 16" fill="none" xmlns="http://www.w3.org/2000/svg">
<path d="M14 8C14 4.68629 11.3137 2 8 2C4.68629 2 2 4.68629 2 8C2 11.3137 4.68629 14 8 14" stroke="currentColor" stroke-width="1.5"/>
<path d="M11 8C11 6.34315 9.65685 5 8 5C6.34315 5 5 6.34315 5 8C5 9.65685 6.34315 11 8 11" stroke="currentColor" stroke-width="1.5"/>
<circle cx="8" cy="8" r="1" fill="currentColor"/>
<path d="M15 10L12.5 12.5M12.5 12.5L10 15M12.5 12.5L15 15M12.5 12.5L10 10" stroke="currentColor" stroke-width="1.5"/>
</svg>
