<svg width="100%" height="100%" viewBox="0 0 16 16" fill="none" xmlns="http://www.w3.org/2000/svg">
<g clip-path="url(#clip0_9621_62587)">
<path d="M3.61193 16V12.4C3.61193 12.4 1.20001 10 1.20001 7C1.20001 3.4 4.21491 1 7.2298 1C11.7898 1 13.2596 4.6 13.8626 6.4C14.4655 8.2 15 10.1071 15 10.1071H12.7881V13.1071H10.0751V16" stroke="currentColor" stroke-width="1.5"/>
<circle cx="7.42416" cy="7.33693" r="1.99666" stroke="currentColor" stroke-width="1.5"/>
<path d="M7.42416 3.34375V5.39426M7.42416 9.36712V11.3304M11.4241 7.3304H9.37362M5.40077 7.3304H3.4375M10.2498 4.50864L8.79988 5.95858M5.99065 8.76781L4.60242 10.156M10.2592 10.156L8.8093 8.70611M6.00007 5.89687L4.61183 4.50864" stroke="currentColor" stroke-width="1.5"/>
</g>
<defs>
<clipPath id="clip0_9621_62587">
<rect width="16" height="16" fill="white"/>
</clipPath>
</defs>
</svg>
