<svg width="100%" height="100%" viewBox="0 0 16 16" fill="none" xmlns="http://www.w3.org/2000/svg">
<path d="M5.75 11.6895L4.1875 10.127C3.26737 9.20683 2.7501 7.95847 2.75 6.65723C2.75 3.94725 4.94725 1.75 7.65723 1.75H8.34277C11.0528 1.75 13.25 3.94725 13.25 6.65723C13.2499 7.95847 12.7326 9.20683 11.8125 10.127L10.25 11.6895V13C10.25 13.6904 9.69036 14.25 9 14.25H7C6.30964 14.25 5.75 13.6904 5.75 13V11.6895Z" stroke="currentColor" stroke-width="1.5"/>
<path d="M8.00003 11L8.00003 8.11111M8.00003 8.11111L5.5 5.61111M8.00003 8.11111L10.5 5.61111" stroke="currentColor" stroke-width="1.5"/>
<path d="M5 11H11" stroke="currentColor" stroke-width="1.5"/>
</svg>
